@startuml
'https://plantuml.com/class--diagram


Package RankingAggregate{
    Entity Ranking  {
            <<root entity>>
        }
    Class Rank <<(V,#f04800) value Object>>{}

}

Package JobOfferAggregate{
    Entity JobOffer {
        <<root entity>>
    }

    Class JobRefCode <<(V, #f09000) Identifier value Object>>{}
    Class JobTitle <<(V,#f04800) value Object>>{}
    Class ContractType  <<(V,#f04800) value Object>>{}
    Class JobMode <<(V,#f04800) value Object>>{}
    Class NumberOfVacancies <<(V,#f04800) value Object>>{}
}

Package ApplicationAggregate{

    Entity Application  {
        <<root entity>>
    }

    Class ApplicationAttachedFile <<(V,#f04800) value Object>>{}
    Class ApplicationRefCode <<(V,#f09000) Identifier value Object>>{}
    Class ApplicationAttachedFilesLocation <<(V,#f04800) value Object>>{}
    Class InterviewGrade <<(V,#f04800) value Object>>{}
    Class ApplicationState <<(V,#f04800) value Object>>{}
    Class ApplicationEmail <<(V,#f04800) value Object>>{}
}


Application "*" --> "1" JobOffer : > pertains to
Application "1" - "1" ApplicationEmail : > contains
Application "1" -- "1" ApplicationRefCode : describes <
Application "1" -- "*" ApplicationAttachedFile : > contains
Application "1" -- "1" ApplicationAttachedFilesLocation : > contains
Application "1" -- "1" ApplicationState : > contains
Application "1" -- "1" InterviewGrade : > contains

JobOffer "1" ---- "1" JobRefCode : identifies <
JobOffer "1" ---- "1" JobTitle : describes <
JobOffer "1" ---- "1" ContractType : describes <
JobOffer "1" ---- "1" JobMode : describes <
JobOffer "1" ---- "1" NumberOfVacancies : describes <

Ranking - Rank : <describes

Ranking --> JobOffer
Ranking -> Application





@enduml